Coordinates
version=1
nRows=26
nColumns=24
inDegrees=yes

Units are S.I. units (second, meters, Newtons, ...)
Angles are in degrees.

endheader
time	pelvis_tilt	pelvis_list	pelvis_rotation	pelvis_tx	pelvis_ty	pelvis_tz	hip_flexion_r	hip_adduction_r	hip_rotation_r	knee_angle_r	ankle_angle_r	subtalar_angle_r	mtp_angle_r	hip_flexion_l	hip_adduction_l	hip_rotation_l	knee_angle_l	ankle_angle_l	subtalar_angle_l	mtp_angle_l	lumbar_extension	lumbar_bending	lumbar_rotation
      0.68366667	     -5.83607652	      0.81165175	      2.46026149	     -0.36543163	      1.06410758	      0.29610615	     16.29772134	      1.91774408	     -1.13573126	    -20.47108941	     11.22294688	     -5.36080716	      4.15397981	     24.27360343	     -3.01352370	     -3.38309469	    -71.25513778	     10.96296510	      6.54968110	      1.73304172	     -7.48024175	      3.73072214	      3.14099854
      0.68783333	     -5.80157838	      0.90581891	      2.30280282	     -0.36026646	      1.06496474	      0.29654423	     15.79822355	      1.87451045	     -1.03088013	    -20.12823096	     11.31053589	     -5.25340644	      4.14137002	     24.72614342	     -2.96762448	     -3.60264579	    -70.76777310	     11.23870492	      6.87450036	      1.78293033	     -7.55131841	      3.58678786	      3.37666087
      0.69200000	     -5.80716831	      1.00400262	      2.13216190	     -0.35509023	      1.06569628	      0.29699629	     15.34857245	      1.82531049	     -0.91791916	    -19.79761814	     11.39379005	     -5.14316187	      4.12616225	     25.20831532	     -2.92490460	     -3.84286197	    -70.24118899	     11.50384749	      7.16921546	      1.84209063	     -7.56320403	      3.42638481	      3.61179290
      0.69616667	     -5.79740452	      1.10888123	      1.95598745	     -0.34992427	      1.06643722	      0.29745042	     14.88415883	      1.76775958	     -0.79731890	    -19.46813673	     11.44770202	     -5.02393240	      4.12015305	     25.65776498	     -2.88063724	     -4.09649018	    -69.66307414	     11.75098690	      7.43365618	      1.87464587	     -7.60108868	      3.27522905	      3.71640969
      0.70033333	     -5.77536056	      1.21213733	      1.77897568	     -0.34477541	      1.06716256	      0.29788944	     14.40664755	      1.70963811	     -0.67010491	    -19.13597939	     11.53300919	     -4.91463461	      4.11295233	     26.08135841	     -2.83744195	     -4.34473009	    -69.04100079	     11.99388901	      7.73905882	      1.91365578	     -7.66163284	      3.13328132	      3.90571703
      0.70450000	     -5.75605974	      1.29759376	      1.60665556	     -0.33963091	      1.06782418	      0.29832889	     13.92921159	      1.66706769	     -0.55933151	    -18.79354545	     11.63031898	     -4.80973646	      4.09923317	     26.50228398	     -2.81877528	     -4.59070358	    -68.39090098	     12.21534494	      8.01823693	      1.97395141	     -7.71182554	      2.98289144	      4.19732212
      0.70866667	     -5.77115582	      1.39727114	      1.42289080	     -0.33449418	      1.06838415	      0.29876925	     13.50100540	      1.60664815	     -0.43640361	    -18.47482567	     11.70678224	     -4.69660327	      4.08947458	     26.94354011	     -2.78675321	     -4.84940626	    -67.69497603	     12.41779630	      8.26978079	      2.02049981	     -7.72083970	      2.84305573	      4.36063827
      0.71283333	     -5.77127948	      1.48820268	      1.24155545	     -0.32935402	      1.06893157	      0.29920399	     13.05439346	      1.55269281	     -0.32121155	    -18.15128593	     11.78031722	     -4.57748028	      4.08242151	     27.35576393	     -2.76667811	     -5.10577710	    -66.96000964	     12.60588456	      8.50802460	      2.05741838	     -7.74487476	      2.70792297	      4.51102731
      0.71700000	     -5.75444274	      1.55425519	      1.07239575	     -0.32423082	      1.06945339	      0.29962300	     12.58270969	      1.52175403	     -0.21808941	    -17.80989256	     11.87562725	     -4.46647425	      4.06960946	     27.74598432	     -2.77173619	     -5.34176247	    -66.20172686	     12.78258136	      8.74439641	      2.11331878	     -7.79647717	      2.57751696	      4.76451308
      0.72116667	     -5.76040041	      1.63427686	      0.89393818	     -0.31910780	      1.06990964	      0.30002804	     12.14291693	      1.47140253	     -0.11126171	    -17.48187125	     11.94336096	     -4.34072903	      4.05260149	     28.14080470	     -2.76151117	     -5.58712791	    -65.39393170	     12.92984389	      8.93923695	      2.17929962	     -7.81761760	      2.44837017	      4.96881577
      0.72533333	     -5.75884338	      1.71852389	      0.72452724	     -0.31398814	      1.07032732	      0.30042264	     11.69868842	      1.41266672	     -0.02067035	    -17.16440465	     12.05141584	     -4.22289056	      4.04361260	     28.51465349	     -2.74441696	     -5.82518290	    -64.54756009	     13.05641492	      9.12843124	      2.22187969	     -7.84187954	      2.31589563	      5.10023722
      0.72950000	     -5.77975450	      1.79139297	      0.55667961	     -0.30887874	      1.07066600	      0.30079631	     11.28042640	      1.36132141	      0.07020874	    -16.84626295	     12.11767680	     -4.09597762	      4.03936494	     28.90111008	     -2.73522316	     -6.04872290	    -63.66758588	     13.16340591	      9.28488269	      2.24464265	     -7.84209641	      2.21146768	      5.19120641
      0.73366667	     -5.78462650	      1.85642923	      0.39226496	     -0.30378100	      1.07096462	      0.30115369	     10.84751570	      1.31523730	      0.14975430	    -16.53435724	     12.21987305	     -3.96722876	      4.03400550	     29.25983068	     -2.73393485	     -6.26672136	    -62.75939952	     13.26613710	      9.44631755	      2.27207315	     -7.86534125	      2.10635144	      5.34883872
      0.73783333	     -5.79679991	      1.91122380	      0.24015555	     -0.29868566	      1.07121923	      0.30148192	     10.41883689	      1.27545778	      0.21690951	    -16.21477840	     12.30855214	     -3.83636872	      4.02957956	     29.61499988	     -2.73399851	     -6.45981382	    -61.81759345	     13.34030020	      9.56091653	      2.29364718	     -7.87969436	      2.01115028	      5.48054467
      0.74200000	     -5.81911595	      1.95711109	      0.09355095	     -0.29359517	      1.07139445	      0.30179216	     10.00355512	      1.24150880	      0.27633558	    -15.90118133	     12.40717654	     -3.70418818	      4.02577676	     29.97080824	     -2.73935231	     -6.63935982	    -60.84845689	     13.40023270	      9.65755924	      2.31322460	     -7.88216288	      1.92758429	      5.61090034
      0.74616667	     -5.82907702	      2.00032912	     -0.04745907	     -0.28851860	      1.07155432	      0.30207477	      9.57647479	      1.20601333	      0.32448130	    -15.58892319	     12.51054726	     -3.56811584	      4.02171168	     30.29852091	     -2.74047605	     -6.80371359	    -59.84288866	     13.44314162	      9.72369515	      2.33213393	     -7.90179025	      1.84774063	      5.74364999
      0.75033333	     -5.85430944	      2.02724399	     -0.17528952	     -0.28344098	      1.07161829	      0.30232998	      9.16134509	      1.18501412	      0.36318095	    -15.26944251	     12.61242598	     -3.42911881	      4.01928014	     30.63634979	     -2.75134284	     -6.94456273	    -58.82034979	     13.47236899	      9.76417966	      2.34545375	     -7.90405788	      1.78173222	      5.84275878
      0.75450000	     -5.86944676	      2.06012799	     -0.30455730	     -0.27838083	      1.07167816	      0.30256506	      8.74608738	      1.15319220	      0.39221992	    -14.97206065	     12.72587390	     -3.28531209	      4.01592342	     30.94173944	     -2.74853383	     -7.07281050	    -57.74858905	     13.48046825	      9.77172041	      2.35995599	     -7.91636946	      1.72726415	      5.96111066
      0.75866667	     -5.91296649	      2.06870305	     -0.42124060	     -0.27332830	      1.07160361	      0.30276686	      8.35934661	      1.14480042	      0.41278161	    -14.67097337	     12.83987452	     -3.14246921	      4.01267364	     31.27568985	     -2.76400332	     -7.17366496	    -56.66981390	     13.48272156	      9.75712178	      2.37238274	     -7.89894185	      1.69586752	      6.05900121
      0.76283333	     -5.94561701	      2.08042538	     -0.53374237	     -0.26827735	      1.07152785	      0.30295460	      7.96014578	      1.13066739	      0.43015325	    -14.36795556	     12.94774216	     -2.99834852	      4.01049425	     31.57835623	     -2.76860730	     -7.25864942	    -55.55021436	     13.46405046	      9.71113153	      2.38085990	     -7.89548138	      1.65951479	      6.13247753
      0.76700000	     -5.98449363	      2.07414615	     -0.63691594	     -0.26324659	      1.07135835	      0.30310936	      7.57088132	      1.13298498	      0.43613467	    -14.07298541	     13.07140275	     -2.85098662	      4.00814253	     31.88249113	     -2.78402786	     -7.31869981	    -54.41787251	     13.44114547	      9.63981934	      2.38880523	     -7.88956270	      1.64990971	      6.20655141
      0.77116667	     -6.01976169	      2.05615336	     -0.73321984	     -0.25821789	      1.07117100	      0.30323740	      7.17416470	      1.14612580	      0.44013664	    -13.77086074	     13.18448676	     -2.70734189	      4.00553235	     32.16790528	     -2.80200869	     -7.35400103	    -53.25552021	     13.40522384	      9.54439607	      2.39476480	     -7.88721073	      1.65258087	      6.26671291
      0.77533333	     -6.07576948	      2.03613587	     -0.82466112	     -0.25320173	      1.07087853	      0.30335092	      6.80485979	      1.15988476	      0.44425523	    -13.48153162	     13.30545427	     -2.57066427	      4.00355034	     32.46480502	     -2.81775977	     -7.37348239	    -52.07142762	     13.36275018	      9.43259221	      2.39867076	     -7.86469561	      1.65880515	      6.30976992
      0.77950000	     -6.11588273	      2.00586327	     -0.90955308	     -0.24819256	      1.07058712	      0.30343723	      6.41652814	      1.18248110	      0.44082041	    -13.18767703	     13.42458413	     -2.43123380	      4.00095248	     32.72881997	     -2.83356067	     -7.36592572	    -50.85675892	     13.31000968	      9.29184510	      2.40221034	     -7.86133852	      1.68122931	      6.34923491
      0.78366667	     -6.17655012	      1.95657270	     -0.98701316	     -0.24319854	      1.07018537	      0.30349933	      6.05228304	      1.22522730	      0.43832144	    -12.89850987	     13.54607402	     -2.29877346	      3.99784812	     33.00878554	     -2.86280611	     -7.33244159	    -49.63249146	     13.26218737	      9.14876319	      2.40556227	     -7.83720798	      1.73161369	      6.37770846
      0.78783333	     -6.23944641	      1.91072202	     -1.05918068	     -0.23820321	      1.06973440	      0.30354758	      5.69213474	      1.26320849	      0.43132856	    -12.61761074	     13.67532516	     -2.16837999	      3.99386927	     33.27619700	     -2.88173855	     -7.28165619	    -48.38078474	     13.20623120	      8.98305024	      2.40930630	     -7.81213527	      1.77221236	      6.39331187
